<mxfile host="app.diagrams.net" modified="2024-02-20T13:09:16.242Z" agent="Mozilla/5.0 (Windows NT 10.0; Win64; x64) AppleWebKit/537.36 (KHTML, like Gecko) Chrome/121.0.0.0 Safari/537.36 Edg/121.0.0.0" etag="0EfQZOggUJurT2beczTg" version="23.1.5" type="device">
  <diagram name="PÃ¡gina-1" id="IlBS88WCOI1SdSvZL4vc">
    <mxGraphModel dx="792" dy="449" grid="1" gridSize="10" guides="1" tooltips="1" connect="1" arrows="1" fold="1" page="1" pageScale="1" pageWidth="827" pageHeight="1169" background="#FFFFFF" math="0" shadow="0">
      <root>
        <mxCell id="0" />
        <mxCell id="1" parent="0" />
        <mxCell id="L5mIMnbKrPsClWhsIQLD-1" value="Coherence-detection system" style="rounded=1;whiteSpace=wrap;html=1;fillColor=#6d8764;strokeColor=#3A5431;fontColor=#ffffff;" vertex="1" parent="1">
          <mxGeometry x="380" y="340" width="190" height="90" as="geometry" />
        </mxCell>
        <mxCell id="L5mIMnbKrPsClWhsIQLD-7" style="edgeStyle=orthogonalEdgeStyle;rounded=0;orthogonalLoop=1;jettySize=auto;html=1;entryX=0;entryY=0.5;entryDx=0;entryDy=0;" edge="1" parent="1" source="L5mIMnbKrPsClWhsIQLD-2" target="L5mIMnbKrPsClWhsIQLD-1">
          <mxGeometry relative="1" as="geometry" />
        </mxCell>
        <mxCell id="L5mIMnbKrPsClWhsIQLD-2" value="Fingerprint" style="text;html=1;align=center;verticalAlign=middle;resizable=0;points=[];autosize=1;strokeColor=none;fillColor=none;" vertex="1" parent="1">
          <mxGeometry x="200" y="310" width="80" height="30" as="geometry" />
        </mxCell>
        <mxCell id="L5mIMnbKrPsClWhsIQLD-10" style="edgeStyle=orthogonalEdgeStyle;rounded=0;orthogonalLoop=1;jettySize=auto;html=1;entryX=0;entryY=0.5;entryDx=0;entryDy=0;" edge="1" parent="1" source="L5mIMnbKrPsClWhsIQLD-3" target="L5mIMnbKrPsClWhsIQLD-1">
          <mxGeometry relative="1" as="geometry" />
        </mxCell>
        <mxCell id="L5mIMnbKrPsClWhsIQLD-3" value="Username" style="text;html=1;align=center;verticalAlign=middle;resizable=0;points=[];autosize=1;strokeColor=none;fillColor=none;" vertex="1" parent="1">
          <mxGeometry x="200" y="340" width="80" height="30" as="geometry" />
        </mxCell>
        <mxCell id="L5mIMnbKrPsClWhsIQLD-11" style="edgeStyle=orthogonalEdgeStyle;rounded=0;orthogonalLoop=1;jettySize=auto;html=1;entryX=0;entryY=0.5;entryDx=0;entryDy=0;" edge="1" parent="1" source="L5mIMnbKrPsClWhsIQLD-4" target="L5mIMnbKrPsClWhsIQLD-1">
          <mxGeometry relative="1" as="geometry">
            <mxPoint x="350" y="385" as="targetPoint" />
          </mxGeometry>
        </mxCell>
        <mxCell id="L5mIMnbKrPsClWhsIQLD-4" value="Password" style="text;html=1;align=center;verticalAlign=middle;resizable=0;points=[];autosize=1;strokeColor=none;fillColor=none;" vertex="1" parent="1">
          <mxGeometry x="200" y="370" width="80" height="30" as="geometry" />
        </mxCell>
        <mxCell id="L5mIMnbKrPsClWhsIQLD-12" style="edgeStyle=orthogonalEdgeStyle;rounded=0;orthogonalLoop=1;jettySize=auto;html=1;entryX=0;entryY=0.5;entryDx=0;entryDy=0;" edge="1" parent="1" source="L5mIMnbKrPsClWhsIQLD-5" target="L5mIMnbKrPsClWhsIQLD-1">
          <mxGeometry relative="1" as="geometry">
            <Array as="points">
              <mxPoint x="330" y="415" />
              <mxPoint x="330" y="385" />
            </Array>
          </mxGeometry>
        </mxCell>
        <mxCell id="L5mIMnbKrPsClWhsIQLD-5" value="Face features" style="text;html=1;align=center;verticalAlign=middle;resizable=0;points=[];autosize=1;strokeColor=none;fillColor=none;" vertex="1" parent="1">
          <mxGeometry x="190" y="400" width="100" height="30" as="geometry" />
        </mxCell>
        <mxCell id="L5mIMnbKrPsClWhsIQLD-13" style="edgeStyle=orthogonalEdgeStyle;rounded=0;orthogonalLoop=1;jettySize=auto;html=1;entryX=0;entryY=0.5;entryDx=0;entryDy=0;" edge="1" parent="1" source="L5mIMnbKrPsClWhsIQLD-6" target="L5mIMnbKrPsClWhsIQLD-1">
          <mxGeometry relative="1" as="geometry">
            <Array as="points">
              <mxPoint x="330" y="445" />
              <mxPoint x="330" y="385" />
            </Array>
          </mxGeometry>
        </mxCell>
        <mxCell id="L5mIMnbKrPsClWhsIQLD-6" value="ID card" style="text;html=1;align=center;verticalAlign=middle;resizable=0;points=[];autosize=1;strokeColor=none;fillColor=none;" vertex="1" parent="1">
          <mxGeometry x="210" y="430" width="60" height="30" as="geometry" />
        </mxCell>
        <mxCell id="L5mIMnbKrPsClWhsIQLD-14" value="Veracity score:&lt;br&gt;&lt;br&gt;0.723" style="text;html=1;align=center;verticalAlign=middle;resizable=0;points=[];autosize=1;strokeColor=none;fillColor=none;" vertex="1" parent="1">
          <mxGeometry x="615" y="355" width="100" height="60" as="geometry" />
        </mxCell>
        <mxCell id="L5mIMnbKrPsClWhsIQLD-16" style="edgeStyle=orthogonalEdgeStyle;rounded=0;orthogonalLoop=1;jettySize=auto;html=1;" edge="1" parent="1" source="L5mIMnbKrPsClWhsIQLD-1" target="L5mIMnbKrPsClWhsIQLD-14">
          <mxGeometry relative="1" as="geometry">
            <Array as="points" />
          </mxGeometry>
        </mxCell>
      </root>
    </mxGraphModel>
  </diagram>
</mxfile>
